# xmcd
#
# Track frame offsets:
#	150
#	19362
#	33255
#	47164
#	63524
#	78794
#	92930
#	110256
#	123818
#	135966
#	149207
#	161276
#	173461
#	187585
#	200224
#	218045
#	229270
#	241106
#	261917
#	281026
#	297012
#
# Disc length: 4268 seconds
#
# Revision: 1
# Processed by: cddbd v1.4PL0 Copyright (c) Steve Scherf et al.
# Submitted via: EasyCDDAExtractor 6.2.0.3
#
DISCID=2510aa15
DTITLE=Forró and Axé 2003 - Vol 02
DYEAR=2003
DGENRE=Forró
TTITLE0=Esperando Por Você - Banda Calypso
TTITLE1=Treme Treme - Trio Chapahalls
TTITLE2=Nóis Só  qué Virá Os Zóio - Cézar and Paulinho
TTITLE3=Zouk Do Jamaika - Kosma
TTITLE4=Não Tô Nem Aí - Rio Negro and Solimões
TTITLE5=Só Vai Dar Eu E Você - Banda Calypso
TTITLE6=Tikim De Um Tikim De Outro - Os Feras Do Baile
TTITLE7=Tá Nervoso...Vai Pescar - Ataíde and Alexandre
TTITLE8=Não Foge Da Raia 2 - Bruno and Marrone
TTITLE9=Tobas Bee - Os Feras Do Baile
TTITLE10=Zouk Declaração De Amor - Cumbia
TTITLE11=Lebera Toin - Geraldo Nunes
TTITLE12=Quatro Beijos - Luiz Paulo and Pantanal
TTITLE13=Nunca Pense Chore - Cumbia
TTITLE14=Dançando Sem Parar - Pascolino
TTITLE15=Pout-Pourri 
TTITLE16=Tô Nem Aí - Luca
TTITLE17=Adoleta - Kelly Key
TTITLE18=Já É - Lulu Santos
TTITLE19=Vengaboys
TTITLE20=Coubankan - Ney Matogrosso
EXTD=
EXTT0=
EXTT1=
EXTT2=
EXTT3=
EXTT4=
EXTT5=
EXTT6=
EXTT7=
EXTT8=
EXTT9=
EXTT10=
EXTT11=
EXTT12=
EXTT13=
EXTT14=
EXTT15=
EXTT16=
EXTT17=
EXTT18=
EXTT19=
EXTT20=
PLAYORDER=
